<svg xmlns="http://www.w3.org/2000/svg" xmlns:xlink="http://www.w3.org/1999/xlink" width="2000" zoomAndPan="magnify" viewBox="0 0 1500 1499.999933" height="2000" preserveAspectRatio="xMidYMid meet" version="1.0"><defs><g/><clipPath id="6e864ee4e9"><path d="M 154 10.402344 L 1349 10.402344 L 1349 1485 L 154 1485 Z M 154 10.402344 " clip-rule="nonzero"/></clipPath></defs><g clip-path="url(#6e864ee4e9)"><path fill="#ffffff" d="M 268.84375 37.996094 L 841.414062 40.039062 C 859.859375 40.117188 863.5 48.140625 863.085938 64.320312 L 857.929688 284.304688 C 857.628906 299.828125 862.503906 313.8125 873.171875 321.6875 C 883.820312 329.523438 896.304688 330.628906 909.503906 330.515625 L 1276.058594 328.734375 C 1293.644531 328.660156 1295.875 339.027344 1296.15625 351.4375 L 1319.777344 1415.066406 C 1320.472656 1445.492188 1300.957031 1453.519531 1278.703125 1453.984375 C 860.875 1463.246094 528.777344 1448.925781 204.011719 1434.46875 C 188.394531 1433.8125 182.453125 1430.082031 182.921875 1415.835938 C 197.453125 969.003906 237.402344 76.261719 239.050781 62.386719 C 241.507812 41.652344 250.882812 37.996094 268.84375 37.996094 Z M 268.953125 9.652344 C 257.3125 9.574219 243.851562 13.101562 232.132812 22.25 C 220.511719 31.324219 211.53125 46.753906 210.761719 66.664062 C 210.761719 66.664062 169.347656 967.429688 154.519531 1414.261719 C 153.527344 1443.335938 166.628906 1461.523438 189.878906 1462.816406 C 514.230469 1479.875 860.292969 1489.027344 1279.078125 1482.445312 C 1300.394531 1482.015625 1318.335938 1476.558594 1330.859375 1464.242188 C 1343.34375 1451.941406 1348.613281 1434.167969 1348.21875 1414.261719 L 1324.484375 350.914062 C 1324.183594 336.273438 1318.558594 322.792969 1308.773438 313.8125 C 1298.929688 304.8125 1285.449219 300.332031 1271.390625 300.332031 L 903.46875 302.207031 C 887.140625 302.28125 886.070312 295.175781 886.371094 284.921875 L 891.449219 65.011719 C 891.824219 49.113281 887.0625 34.152344 875.816406 24.59375 C 864.566406 15.03125 849.644531 11.804688 832.058594 11.695312 Z M 268.953125 9.652344 " fill-opacity="1" fill-rule="nonzero"/></g><g fill="#ffffff" fill-opacity="1"><g transform="translate(265.087746, 815.23479)"><g><path d="M 19.25 0 L 19.25 -4.90625 C 25.039062 -6.664062 29.003906 -10.441406 31.140625 -16.234375 C 33.285156 -22.023438 34.359375 -32.59375 34.359375 -47.9375 L 34.359375 -216.3125 C 34.359375 -231.914062 33.285156 -242.546875 31.140625 -248.203125 C 29.003906 -253.867188 25.039062 -257.582031 19.25 -259.34375 L 19.25 -264.25 L 80.40625 -264.25 L 80.40625 -259.34375 C 74.613281 -257.582031 70.648438 -253.867188 68.515625 -248.203125 C 66.378906 -242.546875 65.3125 -231.914062 65.3125 -216.3125 L 65.3125 -23.03125 C 65.3125 -11.707031 70.972656 -6.046875 82.296875 -6.046875 L 127.21875 -6.046875 C 145.332031 -6.046875 159.234375 -8.75 168.921875 -14.15625 C 178.617188 -19.5625 186.738281 -29.3125 193.28125 -43.40625 L 197.4375 -42.65625 L 194.796875 0 Z M 19.25 0 "/></g></g></g><g fill="#ffffff" fill-opacity="1"><g transform="translate(489.703111, 815.23479)"><g><path d="M -6.421875 0 L -6.421875 -4.90625 C -1.128906 -6.664062 4.03125 -10.125 9.0625 -15.28125 C 14.09375 -20.445312 19.503906 -30.203125 25.296875 -44.546875 L 99.65625 -228.765625 C 101.925781 -234.804688 101.675781 -240.71875 98.90625 -246.5 L 95.5 -254.4375 L 123.8125 -267.265625 L 216.6875 -44.171875 C 222.476562 -30.078125 227.695312 -20.445312 232.34375 -15.28125 C 237 -10.125 241.34375 -6.664062 245.375 -4.90625 L 245.375 0 L 186.859375 0 L 186.859375 -4.90625 C 192.648438 -6.664062 195.039062 -10.125 194.03125 -15.28125 C 193.03125 -20.445312 189.507812 -30.078125 183.46875 -44.171875 L 160.4375 -99.65625 L 53.984375 -99.65625 L 31.703125 -44.546875 C 22.140625 -20.640625 23.648438 -7.425781 36.234375 -4.90625 L 36.234375 0 Z M 56.25 -105.328125 L 158.171875 -105.328125 L 106.453125 -229.515625 Z M 56.25 -105.328125 "/></g></g></g><g fill="#ffffff" fill-opacity="1"><g transform="translate(751.313881, 815.23479)"><g><path d="M 19.25 0 L 19.25 -4.90625 C 25.039062 -6.664062 29.003906 -10.441406 31.140625 -16.234375 C 33.285156 -22.023438 34.359375 -32.59375 34.359375 -47.9375 L 34.359375 -216.3125 C 34.359375 -231.914062 33.285156 -242.546875 31.140625 -248.203125 C 29.003906 -253.867188 25.039062 -257.582031 19.25 -259.34375 L 19.25 -264.25 L 80.40625 -264.25 L 80.40625 -259.34375 C 74.613281 -257.582031 70.648438 -253.867188 68.515625 -248.203125 C 66.378906 -242.546875 65.3125 -231.914062 65.3125 -216.3125 L 65.3125 -120.421875 L 164.21875 -221.59375 C 176.039062 -233.925781 182.894531 -243.300781 184.78125 -249.71875 C 186.675781 -256.132812 183.972656 -259.847656 176.671875 -260.859375 L 176.671875 -264.25 L 229.140625 -264.25 L 229.140625 -259.34375 C 223.097656 -257.582031 216.050781 -255 208 -251.59375 C 199.945312 -248.195312 190.507812 -240.960938 179.6875 -229.890625 L 99.28125 -147.609375 L 107.96875 -147.984375 C 122.0625 -148.984375 133.570312 -148.285156 142.5 -145.890625 C 151.4375 -143.503906 158.863281 -139.164062 164.78125 -132.875 C 170.695312 -126.582031 176.234375 -118.023438 181.390625 -107.203125 C 186.546875 -96.390625 192.269531 -82.925781 198.5625 -66.8125 C 205.101562 -50.707031 210.515625 -38.1875 214.796875 -29.25 C 219.078125 -20.320312 223.039062 -14.09375 226.6875 -10.5625 C 230.332031 -7.039062 234.171875 -5.28125 238.203125 -5.28125 C 239.460938 -5.28125 240.59375 -5.28125 241.59375 -5.28125 C 242.601562 -5.28125 243.613281 -5.40625 244.625 -5.65625 L 244.625 -0.75 C 241.351562 0.25 237.765625 0.9375 233.859375 1.3125 C 229.960938 1.695312 226 1.890625 221.96875 1.890625 C 212.90625 1.890625 205.601562 -0.0546875 200.0625 -3.953125 C 194.53125 -7.859375 189.5625 -14.28125 185.15625 -23.21875 C 180.757812 -32.15625 175.539062 -43.921875 169.5 -58.515625 C 163.207031 -73.867188 157.859375 -86.890625 153.453125 -97.578125 C 149.046875 -108.273438 144.578125 -116.894531 140.046875 -123.4375 C 135.515625 -129.976562 130.226562 -134.695312 124.1875 -137.59375 C 118.15625 -140.488281 110.359375 -141.8125 100.796875 -141.5625 L 93.25 -141.5625 L 65.3125 -112.875 L 65.3125 -47.9375 C 65.3125 -32.59375 66.378906 -22.023438 68.515625 -16.234375 C 70.648438 -10.441406 74.613281 -6.664062 80.40625 -4.90625 L 80.40625 0 Z M 19.25 0 "/></g></g></g><g fill="#ffffff" fill-opacity="1"><g transform="translate(1012.547184, 815.23479)"><g><path d="M 19.25 0 L 19.25 -4.90625 C 25.039062 -6.664062 29.003906 -10.441406 31.140625 -16.234375 C 33.285156 -22.023438 34.359375 -32.59375 34.359375 -47.9375 L 34.359375 -216.3125 C 34.359375 -231.914062 33.285156 -242.546875 31.140625 -248.203125 C 29.003906 -253.867188 25.039062 -257.582031 19.25 -259.34375 L 19.25 -264.25 L 194.796875 -264.25 L 198.9375 -215.171875 L 194.796875 -214.046875 C 188.242188 -230.648438 179.117188 -242.222656 167.421875 -248.765625 C 155.722656 -255.316406 140.179688 -258.59375 120.796875 -258.59375 L 65.3125 -258.59375 L 65.3125 -144.203125 L 113.625 -144.203125 C 127.96875 -144.203125 139.101562 -145.144531 147.03125 -147.03125 C 154.957031 -148.925781 160.742188 -151.820312 164.390625 -155.71875 C 168.046875 -159.613281 170.628906 -164.332031 172.140625 -169.875 L 176.671875 -169.875 L 176.671875 -112.875 L 172.140625 -112.875 C 170.628906 -118.664062 168.046875 -123.445312 164.390625 -127.21875 C 160.742188 -130.988281 154.957031 -133.816406 147.03125 -135.703125 C 139.101562 -137.597656 127.96875 -138.546875 113.625 -138.546875 L 65.3125 -138.546875 L 65.3125 -22.65625 C 65.3125 -11.320312 70.972656 -5.65625 82.296875 -5.65625 L 131.375 -5.65625 C 149.488281 -5.65625 164.457031 -8.800781 176.28125 -15.09375 C 188.113281 -21.382812 197.429688 -33.34375 204.234375 -50.96875 L 208.375 -50.203125 L 205.359375 0 Z M 19.25 0 "/></g></g></g><g fill="#ffffff" fill-opacity="1"><g transform="translate(371.072112, 1104.734765)"><g><path d="M 94.171875 3.296875 C 76.765625 3.296875 61.125 0.765625 47.25 -4.296875 C 33.375 -9.359375 22.582031 -14.644531 14.875 -20.15625 L 13.21875 -66.078125 L 16.84375 -66.734375 C 21.25 -55.285156 27.03125 -44.660156 34.1875 -34.859375 C 41.351562 -25.054688 50.441406 -17.234375 61.453125 -11.390625 C 72.460938 -5.554688 85.570312 -2.640625 100.78125 -2.640625 C 109.582031 -2.640625 117.726562 -4.457031 125.21875 -8.09375 C 132.707031 -11.726562 138.707031 -16.847656 143.21875 -23.453125 C 147.738281 -30.066406 150 -37.78125 150 -46.59375 C 150 -54.957031 147.796875 -62.222656 143.390625 -68.390625 C 138.984375 -74.554688 133.253906 -79.953125 126.203125 -84.578125 C 119.160156 -89.203125 111.726562 -93.222656 103.90625 -96.640625 C 96.09375 -100.054688 88.660156 -103.195312 81.609375 -106.0625 C 68.609375 -111.34375 57.316406 -116.679688 47.734375 -122.078125 C 38.160156 -127.484375 30.785156 -133.984375 25.609375 -141.578125 C 20.429688 -149.179688 17.84375 -158.816406 17.84375 -170.484375 C 17.84375 -183.484375 21.203125 -194.660156 27.921875 -204.015625 C 34.640625 -213.378906 44.054688 -220.648438 56.171875 -225.828125 C 68.285156 -231.003906 82.382812 -233.59375 98.46875 -233.59375 C 113.4375 -233.59375 126.316406 -231.941406 137.109375 -228.640625 C 147.910156 -225.335938 156.503906 -221.925781 162.890625 -218.40625 L 164.21875 -180.078125 L 160.90625 -179.078125 C 154.738281 -193.398438 145.757812 -205.1875 133.96875 -214.4375 C 122.1875 -223.6875 106.828125 -228.3125 87.890625 -228.3125 C 79.078125 -228.3125 70.867188 -226.601562 63.265625 -223.1875 C 55.671875 -219.769531 49.613281 -214.867188 45.09375 -208.484375 C 40.582031 -202.097656 38.328125 -194.171875 38.328125 -184.703125 C 38.328125 -176.992188 40.195312 -170.273438 43.9375 -164.546875 C 47.6875 -158.816406 52.644531 -153.859375 58.8125 -149.671875 C 64.976562 -145.484375 71.695312 -141.789062 78.96875 -138.59375 C 86.238281 -135.40625 93.394531 -132.378906 100.4375 -129.515625 C 112.78125 -124.671875 124.347656 -119.492188 135.140625 -113.984375 C 145.929688 -108.484375 154.6875 -101.765625 161.40625 -93.828125 C 168.125 -85.898438 171.484375 -75.660156 171.484375 -63.109375 C 171.484375 -49.453125 167.738281 -37.613281 160.25 -27.59375 C 152.757812 -17.570312 143.117188 -9.914062 131.328125 -4.625 C 119.546875 0.65625 107.160156 3.296875 94.171875 3.296875 Z M 94.171875 3.296875 "/></g></g></g><g fill="#ffffff" fill-opacity="1"><g transform="translate(567.006662, 1104.734765)"><g><path d="M -5.609375 0 L -5.609375 -4.296875 C -0.984375 -5.835938 3.523438 -8.863281 7.921875 -13.375 C 12.328125 -17.894531 17.066406 -26.429688 22.140625 -38.984375 L 87.234375 -200.21875 C 89.210938 -205.507812 88.988281 -210.6875 86.5625 -215.75 L 83.59375 -222.6875 L 108.375 -233.921875 L 189.65625 -38.65625 C 194.71875 -26.320312 199.285156 -17.894531 203.359375 -13.375 C 207.441406 -8.863281 211.242188 -5.835938 214.765625 -4.296875 L 214.765625 0 L 163.546875 0 L 163.546875 -4.296875 C 168.617188 -5.835938 170.710938 -8.863281 169.828125 -13.375 C 168.941406 -17.894531 165.859375 -26.320312 160.578125 -38.65625 L 140.421875 -87.234375 L 47.25 -87.234375 L 27.75 -38.984375 C 19.382812 -18.054688 20.707031 -6.492188 31.71875 -4.296875 L 31.71875 0 Z M 49.234375 -92.1875 L 138.4375 -92.1875 L 93.171875 -200.890625 Z M 49.234375 -92.1875 "/></g></g></g><g fill="#ffffff" fill-opacity="1"><g transform="translate(795.982317, 1104.734765)"><g><path d="M 16.84375 0 L 16.84375 -4.296875 C 21.914062 -5.835938 25.382812 -9.140625 27.25 -14.203125 C 29.125 -19.273438 30.0625 -28.53125 30.0625 -41.96875 L 30.0625 -189.328125 C 30.0625 -202.984375 29.125 -212.285156 27.25 -217.234375 C 25.382812 -222.191406 21.914062 -225.441406 16.84375 -226.984375 L 16.84375 -231.28125 L 70.375 -231.28125 L 70.375 -226.984375 C 65.3125 -225.441406 61.84375 -222.191406 59.96875 -217.234375 C 58.09375 -212.285156 57.15625 -202.984375 57.15625 -189.328125 L 57.15625 -20.15625 C 57.15625 -10.238281 62.113281 -5.28125 72.03125 -5.28125 L 111.34375 -5.28125 C 127.207031 -5.28125 139.378906 -7.648438 147.859375 -12.390625 C 156.335938 -17.128906 163.441406 -25.664062 169.171875 -38 L 172.796875 -37.328125 L 170.484375 0 Z M 16.84375 0 "/></g></g></g><g fill="#ffffff" fill-opacity="1"><g transform="translate(946.319902, 1104.734765)"><g><path d="M 65.75 0 L 65.75 -4.296875 C 70.8125 -5.835938 74.28125 -9.140625 76.15625 -14.203125 C 78.03125 -19.273438 78.96875 -28.53125 78.96875 -41.96875 L 78.96875 -226 L 62.78125 -226 C 48.019531 -226 36.785156 -223.6875 29.078125 -219.0625 C 21.367188 -214.4375 14.648438 -206.175781 8.921875 -194.28125 L 5.28125 -194.9375 L 7.265625 -231.28125 L 177.421875 -231.28125 L 179.40625 -194.9375 L 175.78125 -194.28125 C 170.269531 -206.175781 163.660156 -214.4375 155.953125 -219.0625 C 148.242188 -223.6875 136.898438 -226 121.921875 -226 L 106.390625 -226 L 106.390625 -41.96875 C 106.390625 -28.53125 107.320312 -19.273438 109.1875 -14.203125 C 111.0625 -9.140625 114.535156 -5.835938 119.609375 -4.296875 L 119.609375 0 Z M 65.75 0 "/></g></g></g></svg>